<mxfile host="app.diagrams.net" agent="Mozilla/5.0 (X11; Ubuntu; Linux x86_64; rv:138.0) Gecko/20100101 Firefox/138.0" version="27.0.9">
  <diagram name="Page-1" id="RJo9Nls3Gihl1OeTSS5b">
    <mxGraphModel dx="1088" dy="746" grid="1" gridSize="10" guides="1" tooltips="1" connect="1" arrows="1" fold="1" page="1" pageScale="1" pageWidth="827" pageHeight="1169" math="0" shadow="0">
      <root>
        <mxCell id="0" />
        <mxCell id="1" parent="0" />
        <mxCell id="AA2In4YHciN-0_6oZjh0-22" value="" style="edgeStyle=orthogonalEdgeStyle;rounded=0;orthogonalLoop=1;jettySize=auto;html=1;" edge="1" parent="1" source="AA2In4YHciN-0_6oZjh0-1" target="AA2In4YHciN-0_6oZjh0-21">
          <mxGeometry relative="1" as="geometry" />
        </mxCell>
        <mxCell id="AA2In4YHciN-0_6oZjh0-1" value="&lt;div&gt;ESP-2&lt;/div&gt;&lt;div&gt;starter&lt;/div&gt;" style="rounded=1;whiteSpace=wrap;html=1;" vertex="1" parent="1">
          <mxGeometry x="340" y="10" width="120" height="60" as="geometry" />
        </mxCell>
        <mxCell id="AA2In4YHciN-0_6oZjh0-8" value="" style="edgeStyle=orthogonalEdgeStyle;rounded=0;orthogonalLoop=1;jettySize=auto;html=1;" edge="1" parent="1" source="AA2In4YHciN-0_6oZjh0-3" target="AA2In4YHciN-0_6oZjh0-7">
          <mxGeometry relative="1" as="geometry" />
        </mxCell>
        <mxCell id="AA2In4YHciN-0_6oZjh0-9" value="Sender Dictonary med&lt;br&gt;ID = 2" style="edgeLabel;html=1;align=center;verticalAlign=middle;resizable=0;points=[];" vertex="1" connectable="0" parent="AA2In4YHciN-0_6oZjh0-8">
          <mxGeometry x="-0.1" y="1" relative="1" as="geometry">
            <mxPoint as="offset" />
          </mxGeometry>
        </mxCell>
        <mxCell id="AA2In4YHciN-0_6oZjh0-3" value="&lt;div&gt;Klargør Dictonary&lt;/div&gt;&lt;div&gt;med ID = 2&lt;/div&gt;" style="rounded=0;whiteSpace=wrap;html=1;" vertex="1" parent="1">
          <mxGeometry x="340" y="170" width="120" height="60" as="geometry" />
        </mxCell>
        <mxCell id="AA2In4YHciN-0_6oZjh0-11" value="" style="edgeStyle=orthogonalEdgeStyle;rounded=0;orthogonalLoop=1;jettySize=auto;html=1;" edge="1" parent="1" source="AA2In4YHciN-0_6oZjh0-7" target="AA2In4YHciN-0_6oZjh0-10">
          <mxGeometry relative="1" as="geometry" />
        </mxCell>
        <mxCell id="AA2In4YHciN-0_6oZjh0-12" value="&lt;div&gt;Svar med&lt;/div&gt;&lt;div&gt;motor_on = 0/1&lt;/div&gt;" style="edgeLabel;html=1;align=center;verticalAlign=middle;resizable=0;points=[];" vertex="1" connectable="0" parent="AA2In4YHciN-0_6oZjh0-11">
          <mxGeometry x="-0.275" y="1" relative="1" as="geometry">
            <mxPoint as="offset" />
          </mxGeometry>
        </mxCell>
        <mxCell id="AA2In4YHciN-0_6oZjh0-7" value="ESP32&lt;br&gt;&lt;div&gt;HTTP Post&lt;/div&gt;&lt;div&gt;&lt;br&gt;&lt;/div&gt;" style="shape=offPageConnector;whiteSpace=wrap;html=1;" vertex="1" parent="1">
          <mxGeometry x="360" y="280" width="80" height="80" as="geometry" />
        </mxCell>
        <mxCell id="AA2In4YHciN-0_6oZjh0-14" value="" style="edgeStyle=orthogonalEdgeStyle;rounded=0;orthogonalLoop=1;jettySize=auto;html=1;" edge="1" parent="1" source="AA2In4YHciN-0_6oZjh0-10" target="AA2In4YHciN-0_6oZjh0-13">
          <mxGeometry relative="1" as="geometry" />
        </mxCell>
        <mxCell id="AA2In4YHciN-0_6oZjh0-15" value="Ja" style="edgeLabel;html=1;align=center;verticalAlign=middle;resizable=0;points=[];" vertex="1" connectable="0" parent="AA2In4YHciN-0_6oZjh0-14">
          <mxGeometry x="-0.6" y="-1" relative="1" as="geometry">
            <mxPoint x="16" y="-1" as="offset" />
          </mxGeometry>
        </mxCell>
        <mxCell id="AA2In4YHciN-0_6oZjh0-18" value="" style="edgeStyle=orthogonalEdgeStyle;rounded=0;orthogonalLoop=1;jettySize=auto;html=1;" edge="1" parent="1" source="AA2In4YHciN-0_6oZjh0-10" target="AA2In4YHciN-0_6oZjh0-17">
          <mxGeometry relative="1" as="geometry" />
        </mxCell>
        <mxCell id="AA2In4YHciN-0_6oZjh0-20" value="Nej" style="edgeLabel;html=1;align=center;verticalAlign=middle;resizable=0;points=[];" vertex="1" connectable="0" parent="AA2In4YHciN-0_6oZjh0-18">
          <mxGeometry x="0.2" y="-2" relative="1" as="geometry">
            <mxPoint x="12" y="2" as="offset" />
          </mxGeometry>
        </mxCell>
        <mxCell id="AA2In4YHciN-0_6oZjh0-10" value="er&lt;br&gt;motor_on&lt;br&gt;= 1?" style="rhombus;whiteSpace=wrap;html=1;" vertex="1" parent="1">
          <mxGeometry x="360" y="440" width="80" height="80" as="geometry" />
        </mxCell>
        <mxCell id="AA2In4YHciN-0_6oZjh0-16" value="" style="edgeStyle=orthogonalEdgeStyle;rounded=0;orthogonalLoop=1;jettySize=auto;html=1;entryX=1;entryY=0.5;entryDx=0;entryDy=0;" edge="1" parent="1" source="AA2In4YHciN-0_6oZjh0-13" target="AA2In4YHciN-0_6oZjh0-21">
          <mxGeometry relative="1" as="geometry">
            <mxPoint x="560" y="370" as="targetPoint" />
            <Array as="points">
              <mxPoint x="560" y="120" />
            </Array>
          </mxGeometry>
        </mxCell>
        <mxCell id="AA2In4YHciN-0_6oZjh0-13" value="Tænder motor" style="shape=parallelogram;perimeter=parallelogramPerimeter;whiteSpace=wrap;html=1;fixedSize=1;" vertex="1" parent="1">
          <mxGeometry x="500" y="450" width="120" height="60" as="geometry" />
        </mxCell>
        <mxCell id="AA2In4YHciN-0_6oZjh0-19" value="" style="edgeStyle=orthogonalEdgeStyle;rounded=0;orthogonalLoop=1;jettySize=auto;html=1;entryX=0;entryY=0.5;entryDx=0;entryDy=0;" edge="1" parent="1" source="AA2In4YHciN-0_6oZjh0-17" target="AA2In4YHciN-0_6oZjh0-21">
          <mxGeometry relative="1" as="geometry">
            <mxPoint x="240" y="370" as="targetPoint" />
            <Array as="points">
              <mxPoint x="240" y="120" />
            </Array>
          </mxGeometry>
        </mxCell>
        <mxCell id="AA2In4YHciN-0_6oZjh0-17" value="Slukker motor" style="shape=parallelogram;perimeter=parallelogramPerimeter;whiteSpace=wrap;html=1;fixedSize=1;" vertex="1" parent="1">
          <mxGeometry x="180" y="450" width="120" height="60" as="geometry" />
        </mxCell>
        <mxCell id="AA2In4YHciN-0_6oZjh0-23" value="" style="edgeStyle=orthogonalEdgeStyle;rounded=0;orthogonalLoop=1;jettySize=auto;html=1;" edge="1" parent="1" source="AA2In4YHciN-0_6oZjh0-21" target="AA2In4YHciN-0_6oZjh0-3">
          <mxGeometry relative="1" as="geometry" />
        </mxCell>
        <mxCell id="AA2In4YHciN-0_6oZjh0-21" value="Vent 10 sek" style="shape=delay;whiteSpace=wrap;html=1;" vertex="1" parent="1">
          <mxGeometry x="360" y="100" width="80" height="40" as="geometry" />
        </mxCell>
      </root>
    </mxGraphModel>
  </diagram>
</mxfile>
